<svg width="12388" height="3074" viewBox="0 0 12388 3074" fill="none" xmlns="http://www.w3.org/2000/svg">
<path d="M35.5547 3046.73V1484.79H497.433C930.305 1484.79 1146.74 1670 1146.74 2000.24C1146.74 2174.27 1041.87 2310.39 936.999 2370.63L1220.37 3046.73H704.944L515.284 2428.65H495.202V3046.73H35.5547ZM495.202 2165.35H528.671C644.699 2165.35 693.787 2096.17 693.787 2020.31C693.787 1915.44 617.923 1873.04 524.209 1873.04H495.202V2165.35ZM1259.52 3046.73L1574.14 1484.79H2261.38L2575.99 3046.73H2098.49L2053.87 2758.89H1761.56L1716.94 3046.73H1259.52ZM1824.04 2370.63H1995.85L1911.06 1812.8L1824.04 2370.63ZM2656.89 3046.73V1484.79H3094.23C3781.46 1484.79 4020.22 1866.36 4020.22 2243.45C4020.22 2656.24 3772.54 3046.73 3094.23 3046.73H2656.89ZM3116.55 2616.08H3147.78C3386.52 2616.08 3547.18 2511.21 3547.18 2256.84C3547.18 2035.93 3386.52 1910.98 3141.08 1910.98H3116.55V2616.08ZM4095.03 3046.73V1484.79H4554.68V3046.73H4095.03ZM4634.8 3046.73L4949.41 1484.79H5636.65L5951.26 3046.73H5473.77L5429.14 2758.89H5136.84L5092.21 3046.73H4634.8ZM5199.32 2370.63H5371.12L5286.33 1812.8L5199.32 2370.63ZM6032.17 3046.73V1484.79H6469.5C7156.73 1484.79 7395.49 1866.36 7395.49 2243.45C7395.49 2656.24 7147.81 3046.73 6469.5 3046.73H6032.17ZM6491.82 2616.08H6523.05C6761.8 2616.08 6922.45 2511.21 6922.45 2256.84C6922.45 2035.93 6761.8 1910.98 6516.35 1910.98H6491.82V2616.08ZM8284.1 3073.5C7819.99 3073.5 7465.22 2727.64 7465.22 2283.61C7465.22 1730.24 7882.47 1458.02 8286.34 1458.02C8734.82 1458.02 9094.06 1757.01 9094.06 2270.22C9094.06 2774.51 8696.89 3073.5 8284.1 3073.5ZM7924.86 2265.76C7924.86 2466.58 8060.97 2627.23 8279.64 2627.23C8493.84 2627.23 8634.41 2464.34 8634.41 2265.76C8634.41 2067.18 8498.31 1904.29 8279.64 1904.29C8054.28 1904.29 7924.86 2067.18 7924.86 2265.76ZM9169.92 3046.73V1484.79H9631.8C10064.7 1484.79 10281.1 1670 10281.1 2000.24C10281.1 2174.27 10176.2 2310.39 10071.4 2370.63L10354.7 3046.73H9839.31L9649.65 2428.65H9629.58V3046.73H9169.92ZM9629.58 2165.35H9663.05C9779.07 2165.35 9828.16 2096.17 9828.16 2020.31C9828.16 1915.44 9752.3 1873.04 9658.58 1873.04H9629.58V2165.35ZM10379.3 3046.73V1484.79H11307.5V1931.06H10838.9V2064.94H11307.5V2466.58H10838.9V2600.46H11307.5V3046.73H10379.3ZM12054.8 2089.49C12291.3 2185.43 12387.2 2337.16 12387.2 2562.53C12387.2 2863.76 12193.2 3073.5 11874 3073.5C11684.4 3073.5 11537.1 3051.19 11396.5 2959.71V2464.34C11514.8 2589.3 11653.1 2678.56 11838.3 2678.56C11894.1 2678.56 11961.1 2662.94 11961.1 2589.3C11961.1 2533.52 11887.4 2502.29 11807.1 2468.82L11673.2 2413.03C11465.7 2326 11383.2 2198.82 11383.2 1975.69C11383.2 1676.69 11619.7 1458.02 11912 1458.02C12108.4 1458.02 12240 1502.65 12313.6 1549.5V2056.02C12222.1 1922.14 12095 1855.2 11941 1855.2C11874 1855.2 11818.3 1875.28 11818.3 1928.82C11818.3 1989.08 11898.6 2024.77 11967.8 2053.78L12054.8 2089.49Z" fill="black"/>
<path d="M207.919 1061.73L0.195312 0.347656H324.668L435.353 729.667L550.587 0.347656H855.349L649.142 1061.73H207.919ZM1133.09 1079.93C943.563 1079.93 816.199 929.808 816.199 705.407C816.199 476.452 973.887 318.761 1133.09 318.761C1254.39 318.761 1319.58 374.863 1342.33 430.964V333.924H1618.29V1061.73H1339.3V955.589C1308.98 1028.36 1237.71 1079.93 1133.09 1079.93ZM1095.19 696.309C1095.19 770.606 1145.22 831.251 1222.55 831.251C1299.88 831.251 1349.91 770.606 1349.91 696.309C1349.91 618.98 1299.88 558.33 1222.55 558.33C1145.22 558.33 1095.19 618.98 1095.19 696.309ZM1961.46 1079.93C1834.1 1079.93 1764.35 1064.76 1687.03 1026.86V775.155C1762.84 829.745 1844.71 866.132 1941.75 866.132C1976.62 866.132 2005.44 853.995 2005.44 841.87C2005.44 825.189 1984.2 816.093 1922.05 799.415L1846.23 778.187C1743.12 749.378 1682.47 676.598 1682.47 568.944C1682.47 424.899 1779.51 318.761 1984.2 318.761C2081.25 318.761 2161.6 333.924 2220.74 364.249V599.269C2172.22 571.976 2088.83 526.489 1994.82 526.489C1964.49 526.489 1935.69 534.07 1935.69 546.2C1935.69 564.395 1946.3 567.427 1988.76 581.074L2067.59 605.334C2202.55 644.757 2261.68 709.956 2261.68 832.77C2261.68 982.877 2144.92 1079.93 1961.46 1079.93ZM2683.32 1070.83C2489.24 1070.83 2305.78 955.589 2305.78 708.439C2305.78 470.387 2475.59 324.827 2684.84 324.827C2719.7 324.827 2768.23 330.892 2795.52 341.505V625.045C2772.77 608.366 2736.38 588.655 2696.96 588.655C2627.21 588.655 2577.18 632.627 2577.18 700.858C2577.18 772.122 2627.21 813.061 2696.96 813.061C2736.38 813.061 2772.77 803.963 2795.52 779.703V1052.63C2768.23 1064.76 2719.7 1070.83 2683.32 1070.83ZM3238.82 1079.93C3044.75 1079.93 2850.68 955.589 2850.68 708.439C2850.68 470.387 3031.1 318.761 3240.34 318.761C3451.09 318.761 3630.02 467.355 3630.02 690.244C3630.02 949.526 3442.01 1079.93 3238.82 1079.93ZM3112.98 697.826C3112.98 769.09 3172.11 825.189 3241.86 825.189C3310.09 825.189 3367.7 769.09 3367.7 697.826C3367.7 629.594 3310.09 573.492 3241.86 573.492C3172.11 573.492 3112.98 629.594 3112.98 697.826Z" fill="black"/>
</svg>
